<svg width="24" height="24" viewBox="0 0 24 24" fill="none" xmlns="http://www.w3.org/2000/svg">
<g clip-path="url(#clip0_138_4092)">
<path d="M9.6 18.4H14.4M5.6 23.2H18.4C18.8243 23.2 19.2313 23.0314 19.5314 22.7314C19.8314 22.4313 20 22.0243 20 21.6V2.39999C20 1.97564 19.8314 1.56868 19.5314 1.26862C19.2313 0.968559 18.8243 0.799988 18.4 0.799988H5.6C5.17565 0.799988 4.76869 0.968559 4.46863 1.26862C4.16857 1.56868 4 1.97564 4 2.39999V21.6C4 22.0243 4.16857 22.4313 4.46863 22.7314C4.76869 23.0314 5.17565 23.2 5.6 23.2Z" stroke="#334155" stroke-width="2"/>
</g>
<defs>
<clipPath id="clip0_138_4092">
<rect width="24" height="24" fill="white"/>
</clipPath>
</defs>
</svg>
