<svg width="26" height="25" viewBox="0 0 26 25" fill="none" xmlns="http://www.w3.org/2000/svg">
<path d="M14.0232 2.8792C13.6573 2.59456 13.4743 2.45224 13.2722 2.39753C13.094 2.34926 12.906 2.34926 12.7278 2.39753C12.5257 2.45224 12.3427 2.59456 11.9768 2.8792L4.91186 8.37412C4.43961 8.74143 4.20348 8.92509 4.03336 9.15509C3.88267 9.35883 3.77042 9.58835 3.70211 9.83238C3.625 10.1079 3.625 10.407 3.625 11.0053V18.5417C3.625 19.7085 3.625 20.2918 3.85207 20.7375C4.05181 21.1295 4.37052 21.4482 4.76252 21.6479C5.20817 21.875 5.79156 21.875 6.95833 21.875H9.04167C9.33336 21.875 9.47921 21.875 9.59062 21.8182C9.68862 21.7683 9.7683 21.6886 9.81823 21.5906C9.875 21.4792 9.875 21.3334 9.875 21.0417V14.1667C9.875 13.5833 9.875 13.2916 9.98853 13.0688C10.0884 12.8728 10.2478 12.7134 10.4438 12.6135C10.6666 12.5 10.9583 12.5 11.5417 12.5H14.4583C15.0417 12.5 15.3334 12.5 15.5562 12.6135C15.7522 12.7134 15.9116 12.8728 16.0115 13.0688C16.125 13.2916 16.125 13.5833 16.125 14.1667V21.0417C16.125 21.3334 16.125 21.4792 16.1818 21.5906C16.2317 21.6886 16.3114 21.7683 16.4094 21.8182C16.5208 21.875 16.6666 21.875 16.9583 21.875H19.0417C20.2084 21.875 20.7918 21.875 21.2375 21.6479C21.6295 21.4482 21.9482 21.1295 22.1479 20.7375C22.375 20.2918 22.375 19.7085 22.375 18.5417V11.0053C22.375 10.407 22.375 10.1079 22.2979 9.83238C22.2296 9.58835 22.1173 9.35883 21.9666 9.15509C21.7965 8.92509 21.5604 8.74143 21.0881 8.37412L14.0232 2.8792Z" stroke="#D73C23" stroke-width="2" stroke-linecap="round" stroke-linejoin="round"/>
</svg>
