<svg width="25" height="24" viewBox="0 0 25 24" fill="none" xmlns="http://www.w3.org/2000/svg">
<path d="M20.5 10C20.5 14.993 14.961 20.193 13.101 21.799C12.9277 21.9293 12.7168 21.9998 12.5 21.9998C12.2832 21.9998 12.0723 21.9293 11.899 21.799C10.039 20.193 4.5 14.993 4.5 10C4.5 7.87827 5.34285 5.84344 6.84315 4.34315C8.34344 2.84285 10.3783 2 12.5 2C14.6217 2 16.6566 2.84285 18.1569 4.34315C19.6571 5.84344 20.5 7.87827 20.5 10Z" stroke="#142129" stroke-width="2" stroke-linecap="round" stroke-linejoin="round"/>
<path d="M12.5 13C14.1569 13 15.5 11.6569 15.5 10C15.5 8.34315 14.1569 7 12.5 7C10.8431 7 9.5 8.34315 9.5 10C9.5 11.6569 10.8431 13 12.5 13Z" stroke="#142129" stroke-width="2" stroke-linecap="round" stroke-linejoin="round"/>
</svg>
