<svg width="34" height="34" viewBox="0 0 34 34" fill="none" xmlns="http://www.w3.org/2000/svg">
<path d="M14.6526 5.58167C14.7801 4.81383 15.4459 4.25 16.2251 4.25H17.7735C18.5527 4.25 19.2185 4.81383 19.346 5.58167L19.5571 6.84817C19.6563 7.44883 20.1011 7.9305 20.6621 8.16567C21.2259 8.398 21.8733 8.36683 22.3692 8.01267L23.4133 7.26608C23.7203 7.04658 24.0953 6.94318 24.4715 6.97432C24.8477 7.00545 25.2006 7.16908 25.4674 7.43608L26.5625 8.53258C27.115 9.08367 27.1858 9.95208 26.7325 10.5867L25.9859 11.6308C25.6318 12.1267 25.6006 12.7727 25.8343 13.3365C26.0681 13.8989 26.5498 14.3423 27.1518 14.4415L28.4169 14.654C29.1862 14.7815 29.7486 15.4473 29.7486 16.2251V17.7749C29.7486 18.5541 29.1862 19.2199 28.4169 19.3474L27.1518 19.5585C26.5498 19.6577 26.0681 20.1011 25.8343 20.6635C25.6006 21.2273 25.6318 21.8733 25.9859 22.3692L26.7325 23.4147C27.1858 24.0479 27.1136 24.9163 26.5625 25.4688L25.466 26.5639C25.1993 26.8306 24.8466 26.994 24.4708 27.0251C24.0949 27.0562 23.7202 26.953 23.4133 26.7339L22.3678 25.9873C21.8719 25.6332 21.2259 25.602 20.6635 25.8357C20.1011 26.0695 19.6577 26.5512 19.5571 27.1518L19.346 28.4183C19.2185 29.1862 18.5527 29.75 17.7735 29.75H16.2237C15.4445 29.75 14.7801 29.1862 14.6512 28.4183L14.4415 27.1518C14.3409 26.5512 13.8975 26.0695 13.3351 25.8343C12.7713 25.602 12.1253 25.6332 11.6294 25.9873L10.5839 26.7339C9.95068 27.1872 9.08226 27.115 8.52976 26.5639L7.43468 25.4674C7.16768 25.2006 7.00404 24.8477 6.97291 24.4715C6.94178 24.0953 7.04517 23.7203 7.26468 23.4133L8.01126 22.3692C8.36543 21.8733 8.39801 21.2273 8.16426 20.6635C7.93051 20.1011 7.44885 19.6577 6.84676 19.5585L5.58026 19.346C4.81243 19.2185 4.2486 18.5527 4.2486 17.7749V16.2251C4.2486 15.4459 4.81243 14.7801 5.58026 14.6526L6.84676 14.4415C7.44743 14.3423 7.93051 13.8989 8.16426 13.3365C8.39801 12.7727 8.36685 12.1267 8.01268 11.6308L7.2661 10.5853C7.04659 10.2783 6.9432 9.90324 6.97433 9.52707C7.00546 9.15089 7.1691 8.79798 7.4361 8.53117L8.53118 7.43608C8.79799 7.16908 9.15091 7.00545 9.52708 6.97432C9.90326 6.94318 10.2783 7.04658 10.5853 7.26608L11.6294 8.01267C12.1253 8.36683 12.7727 8.398 13.3351 8.16425C13.8975 7.9305 14.3409 7.44883 14.4401 6.84817L14.6526 5.58167Z" stroke="#334155" stroke-width="2" stroke-linecap="round" stroke-linejoin="round"/>
<path d="M21.25 17C21.25 18.1272 20.8022 19.2082 20.0052 20.0052C19.2082 20.8022 18.1272 21.25 17 21.25C15.8728 21.25 14.7918 20.8022 13.9948 20.0052C13.1978 19.2082 12.75 18.1272 12.75 17C12.75 15.8728 13.1978 14.7918 13.9948 13.9948C14.7918 13.1978 15.8728 12.75 17 12.75C18.1272 12.75 19.2082 13.1978 20.0052 13.9948C20.8022 14.7918 21.25 15.8728 21.25 17Z" stroke="#334155" stroke-width="2" stroke-linecap="round" stroke-linejoin="round"/>
</svg>
