<svg width="34" height="34" viewBox="0 0 34 34" fill="none" xmlns="http://www.w3.org/2000/svg">
<path d="M32.5125 19.975C32.4009 20.0587 32.2739 20.1196 32.1387 20.1543C32.0035 20.1889 31.8629 20.1966 31.7247 20.1768C31.5866 20.1571 31.4537 20.1104 31.3337 20.0393C31.2136 19.9682 31.1087 19.8741 31.025 19.7625C30.3846 18.9017 29.551 18.2033 28.5914 17.7235C27.6318 17.2437 26.5729 16.9959 25.5 17C25.2911 17 25.0868 16.9384 24.9127 16.8229C24.7386 16.7073 24.6024 16.5431 24.5212 16.3506C24.466 16.2198 24.4376 16.0794 24.4376 15.9375C24.4376 15.7956 24.466 15.6552 24.5212 15.5245C24.6024 15.332 24.7386 15.1677 24.9127 15.0522C25.0868 14.9367 25.2911 14.875 25.5 14.875C26.0962 14.875 26.6804 14.7077 27.1862 14.3923C27.6921 14.0769 28.0994 13.6259 28.3618 13.0906C28.6242 12.5553 28.7313 11.9571 28.6708 11.3641C28.6103 10.771 28.3847 10.2068 28.0196 9.73547C27.6545 9.26418 27.1646 8.90472 26.6054 8.69793C26.0463 8.49113 25.4403 8.44529 24.8564 8.5656C24.2726 8.68591 23.7341 8.96756 23.3023 9.37856C22.8704 9.78955 22.5625 10.3134 22.4134 10.8906C22.3786 11.0258 22.3174 11.1528 22.2334 11.2643C22.1495 11.3758 22.0444 11.4697 21.9241 11.5407C21.8039 11.6116 21.6709 11.6581 21.5326 11.6776C21.3944 11.6971 21.2537 11.6892 21.1185 11.6543C20.9834 11.6194 20.8564 11.5583 20.7448 11.4743C20.6333 11.3904 20.5394 11.2853 20.4685 11.165C20.3976 11.0448 20.3511 10.9117 20.3316 10.7735C20.3121 10.6353 20.32 10.4946 20.3549 10.3594C20.5617 9.55895 20.9525 8.81783 21.4962 8.19501C22.0399 7.57219 22.7215 7.08486 23.4866 6.77179C24.2518 6.45872 25.0795 6.32856 25.9038 6.39166C26.7281 6.45475 27.5264 6.70937 28.235 7.13525C28.9436 7.56113 29.543 8.14651 29.9856 8.84482C30.4282 9.54313 30.7016 10.3351 30.7843 11.1577C30.8669 11.9803 30.7564 12.8108 30.4616 13.5832C30.1667 14.3556 29.6957 15.0485 29.0859 15.6068C30.5307 16.2324 31.7866 17.225 32.729 18.4862C32.8127 18.5981 32.8735 18.7254 32.908 18.8609C32.9424 18.9963 32.9498 19.1372 32.9296 19.2755C32.9095 19.4138 32.8623 19.5468 32.7908 19.6668C32.7192 19.7869 32.6246 19.8916 32.5125 19.975ZM25.3566 28.1563C25.4334 28.2772 25.4851 28.4124 25.5083 28.5538C25.5316 28.6952 25.526 28.8399 25.4919 28.9791C25.4578 29.1182 25.3959 29.2491 25.3099 29.3637C25.224 29.4784 25.1157 29.5744 24.9916 29.6461C24.8676 29.7179 24.7303 29.7637 24.588 29.781C24.4458 29.7983 24.3015 29.7866 24.1639 29.7467C24.0263 29.7068 23.8981 29.6394 23.7872 29.5487C23.6763 29.458 23.5849 29.3457 23.5184 29.2188C22.8491 28.0854 21.8959 27.1462 20.7528 26.4937C19.6097 25.8412 18.3162 25.4981 17 25.4981C15.6838 25.4981 14.3903 25.8412 13.2472 26.4937C12.1041 27.1462 11.1509 28.0854 10.4816 29.2188C10.4151 29.3457 10.3237 29.458 10.2128 29.5487C10.1019 29.6394 9.97376 29.7068 9.83614 29.7467C9.69852 29.7866 9.55424 29.7983 9.41198 29.781C9.26973 29.7637 9.13245 29.7179 9.00838 29.6461C8.88432 29.5744 8.77604 29.4784 8.69007 29.3637C8.6041 29.2491 8.5422 29.1182 8.50811 28.9791C8.47402 28.8399 8.46843 28.6952 8.49169 28.5538C8.51495 28.4124 8.56657 28.2772 8.64344 28.1563C9.67354 26.3864 11.2442 24.9936 13.1245 24.1825C12.0665 23.3724 11.2888 22.2511 10.901 20.9762C10.5131 19.7013 10.5346 18.3369 10.9622 17.0748C11.3899 15.8127 12.2023 14.7163 13.2853 13.9398C14.3683 13.1634 15.6674 12.7458 17 12.7458C18.3326 12.7458 19.6317 13.1634 20.7147 13.9398C21.7977 14.7163 22.6101 15.8127 23.0378 17.0748C23.4655 18.3369 23.4869 19.7013 23.099 20.9762C22.7112 22.2511 21.9336 23.3724 20.8755 24.1825C22.7558 24.9936 24.3265 26.3864 25.3566 28.1563ZM17 23.375C17.8406 23.375 18.6623 23.1258 19.3612 22.6588C20.0601 22.1918 20.6048 21.528 20.9265 20.7514C21.2482 19.9748 21.3323 19.1203 21.1683 18.2959C21.0044 17.4715 20.5996 16.7142 20.0052 16.1198C19.4108 15.5254 18.6536 15.1207 17.8291 14.9567C17.0047 14.7927 16.1502 14.8769 15.3736 15.1985C14.597 15.5202 13.9333 16.0649 13.4663 16.7638C12.9993 17.4628 12.75 18.2844 12.75 19.125C12.75 20.2522 13.1978 21.3332 13.9948 22.1302C14.7918 22.9272 15.8728 23.375 17 23.375ZM9.56251 15.9375C9.56251 15.6557 9.45056 15.3855 9.25131 15.1862C9.05205 14.987 8.7818 14.875 8.50001 14.875C7.90385 14.875 7.31965 14.7077 6.81378 14.3923C6.3079 14.0769 5.90062 13.6259 5.6382 13.0906C5.37579 12.5553 5.26874 11.9571 5.32924 11.3641C5.38973 10.771 5.61534 10.2068 5.98043 9.73547C6.34552 9.26418 6.83546 8.90472 7.39461 8.69793C7.95375 8.49113 8.55968 8.44529 9.14357 8.5656C9.72746 8.68591 10.2659 8.96756 10.6978 9.37856C11.1296 9.78955 11.4375 10.3134 11.5866 10.8906C11.657 11.1636 11.833 11.3974 12.0759 11.5407C12.3187 11.6839 12.6085 11.7248 12.8815 11.6543C13.1545 11.5839 13.3883 11.4079 13.5315 11.165C13.6747 10.9222 13.7156 10.6324 13.6452 10.3594C13.4383 9.55895 13.0475 8.81783 12.5038 8.19501C11.9601 7.57219 11.2786 7.08486 10.5134 6.77179C9.74821 6.45872 8.92053 6.32856 8.0962 6.39166C7.27187 6.45475 6.47364 6.70937 5.76503 7.13525C5.05642 7.56113 4.45699 8.14651 4.01442 8.84482C3.57186 9.54313 3.29838 10.3351 3.21575 11.1577C3.13312 11.9803 3.24362 12.8108 3.53846 13.5832C3.83329 14.3556 4.30432 15.0485 4.91407 15.6068C3.47077 16.2329 2.21627 17.2256 1.27501 18.4862C1.10575 18.7116 1.03299 18.9951 1.07272 19.2741C1.11244 19.5532 1.26141 19.8051 1.48684 19.9744C1.71228 20.1436 1.99571 20.2164 2.2748 20.1766C2.55388 20.1369 2.80575 19.9879 2.97501 19.7625C3.61541 18.9017 4.44898 18.2033 5.40861 17.7235C6.36824 17.2437 7.42712 16.9959 8.50001 17C8.7818 17 9.05205 16.8881 9.25131 16.6888C9.45056 16.4896 9.56251 16.2193 9.56251 15.9375Z" fill="#334155"/>
</svg>
