<svg width="26" height="25" viewBox="0 0 26 25" fill="none" xmlns="http://www.w3.org/2000/svg">
<path d="M14.0329 13.375C17.822 13.375 20.9079 16.4609 20.9079 20.25C20.9079 20.9531 20.322 21.5 19.6579 21.5H4.6579C3.95477 21.5 3.4079 20.9531 3.4079 20.25C3.4079 16.4609 6.45477 13.375 10.2829 13.375H14.0329ZM5.2829 19.625H18.9938C18.6813 17.1641 16.572 15.25 14.0329 15.25H10.2829C7.70477 15.25 5.5954 17.1641 5.2829 19.625ZM12.1579 11.5C9.38446 11.5 7.1579 9.27344 7.1579 6.5C7.1579 3.76562 9.38446 1.5 12.1579 1.5C14.8923 1.5 17.1579 3.76562 17.1579 6.5C17.1579 9.27344 14.8923 11.5 12.1579 11.5ZM12.1579 3.375C10.4001 3.375 9.0329 4.78125 9.0329 6.5C9.0329 8.25781 10.4001 9.625 12.1579 9.625C13.8766 9.625 15.2829 8.25781 15.2829 6.5C15.2829 4.78125 13.8766 3.375 12.1579 3.375Z" fill="#D73C23"/>
</svg>
